# xmcd
#
# Track frame offsets:
#	150
#	15394
#	33157
#	47046
#	62055
#	75681
#	89160
#	102731
#	119052
#	137426
#	148087
#	160997
#	177808
#	190944
#
# Disc length: 2780
#
# Revision: 3
# Processed by: cddbd v1.5.1PL0 Copyright (c) Steve Scherf et al.
# Submitted via: VisiTrax 2.9.9.209 - For more info visit www.synapsa.com
# Normalized: r2:DSETVAR1
#
DISCID=c30ada0e
DTITLE=Various Artist - CDX 337 february 2004
DYEAR=2004
DGENRE=Country
TTITLE0=Chris Ledoux - Horsepower
TTITLE1=Chris Cagle - I'd Be Lying
TTITLE2=Montgomery Gentry - If You Ever Stop Loving Me
TTITLE3=Shelby Lynne - Lonesome
TTITLE4=Brooks and Dunn - Thats What She Gets For Loving Me
TTITLE5=Scotty Emerick - The Coast Is Clear
TTITLE6=Lee Ann Womack - The Wrong Girl
TTITLE7=Kenny Chesney and Uncle Kracker - When The Sun Goes Down
TTITLE8=Jay Teter - Cowboy Ride
TTITLE9=Moe and Joe Bandy Stamley - Country Boys
TTITLE10=Poobah aka Don Mealer - Crybaby Holler
TTITLE11=Ed Burleson - Dead Skunk
TTITLE12=Zona Jones - House Of Negotiable Affections
TTITLE13=Randy Thompson - If That Was't Love
EXTD=
EXTT0=
EXTT1=
EXTT2=
EXTT3=
EXTT4=
EXTT5=
EXTT6=
EXTT7=
EXTT8=
EXTT9=
EXTT10=
EXTT11=
EXTT12=
EXTT13=
PLAYORDER=
